<?xml version="1.0" encoding="UTF-8" standalone="no"?>
<!-- Created with Inkscape (http://www.inkscape.org/) -->

<svg
   xmlns:dc="http://purl.org/dc/elements/1.1/"
   xmlns:cc="http://creativecommons.org/ns#"
   xmlns:rdf="http://www.w3.org/1999/02/22-rdf-syntax-ns#"
   xmlns:svg="http://www.w3.org/2000/svg"
   xmlns="http://www.w3.org/2000/svg"
   xmlns:sodipodi="http://sodipodi.sourceforge.net/DTD/sodipodi-0.dtd"
   xmlns:inkscape="http://www.inkscape.org/namespaces/inkscape"
   width="640"
   height="640"
   viewBox="0 0 169.33333 169.33334"
   version="1.1"
   id="svg821"
   inkscape:version="0.92.2 (5c3e80d, 2017-08-06)"
   sodipodi:docname="jtcWeather.svg">
  <defs
     id="defs815" />
  <sodipodi:namedview
     id="base"
     pagecolor="#ffffff"
     bordercolor="#666666"
     borderopacity="1.0"
     inkscape:pageopacity="0.0"
     inkscape:pageshadow="2"
     inkscape:zoom="1"
     inkscape:cx="290.78117"
     inkscape:cy="331.42857"
     inkscape:document-units="mm"
     inkscape:current-layer="layer1"
     showgrid="false"
     units="px"
     inkscape:window-width="1920"
     inkscape:window-height="1009"
     inkscape:window-x="-8"
     inkscape:window-y="-8"
     inkscape:window-maximized="1" />
  <metadata
     id="metadata818">
    <rdf:RDF>
      <cc:Work
         rdf:about="">
        <dc:format>image/svg+xml</dc:format>
        <dc:type
           rdf:resource="http://purl.org/dc/dcmitype/StillImage" />
        <dc:title></dc:title>
      </cc:Work>
    </rdf:RDF>
  </metadata>
  <g
     inkscape:label="Layer 1"
     inkscape:groupmode="layer"
     id="layer1"
     transform="translate(0,-127.66665)">
    <g
       aria-label="jtcWeather"
       style="font-style:normal;font-variant:normal;font-weight:bold;font-stretch:normal;font-size:18.67104149px;line-height:1.25;font-family:Consolas;-inkscape-font-specification:'Consolas Bold';font-variant-ligatures:normal;font-variant-caps:normal;font-variant-numeric:normal;text-align:start;letter-spacing:0px;word-spacing:0px;writing-mode:lr-tb;text-anchor:start;fill:#000000;fill-opacity:1;stroke:none;stroke-width:0.38898"
       id="text1395">
      <g
         id="g1430"
         style="fill:#ffffff;fill-opacity:1">
        <path
           id="path1415"
           style="fill:#ffffff;fill-opacity:1;stroke-width:0.38898"
           d="m 162.40638,269.84529 q 0.0182,-0.51965 -0.0547,-0.88432 -0.0638,-0.36467 -0.2188,-0.6017 -0.14587,-0.23704 -0.36467,-0.34644 -0.2188,-0.1094 -0.50142,-0.1094 -0.4923,0 -1.02107,0.41025 -0.51965,0.40114 -1.14871,1.33104 v 5.86205 h -2.27918 v -9.26258 h 2.0148 l 0.0821,1.34927 q 0.22792,-0.35555 0.51053,-0.63817 0.29174,-0.28262 0.63817,-0.48318 0.35556,-0.20969 0.78404,-0.31909 0.42849,-0.1094 0.93902,-0.1094 0.70199,0 1.23988,0.24615 0.547,0.23704 0.91167,0.71111 0.37379,0.47407 0.547,1.19429 0.18234,0.7111 0.15499,1.65012 z m -8.1777,0.31909 q 0,0.22792 -0.0182,0.59258 -0.009,0.36467 -0.0365,0.68376 h -6.08997 q 0,0.61082 0.18234,1.07577 0.19145,0.46495 0.52877,0.78404 0.34643,0.30997 0.8205,0.47407 0.48319,0.1641 1.06666,0.1641 0.67464,0 1.44044,-0.10028 0.77492,-0.10941 1.60454,-0.34644 v 1.76864 q -0.35555,0.10029 -0.77492,0.18234 -0.41937,0.082 -0.85697,0.14587 -0.4376,0.0638 -0.88432,0.0912 -0.44672,0.0365 -0.86609,0.0365 -1.05754,0 -1.89628,-0.30085 -0.83874,-0.30085 -1.42221,-0.88432 -0.58347,-0.59259 -0.89343,-1.45868 -0.30997,-0.86609 -0.30997,-2.00568 0,-1.13047 0.30997,-2.05126 0.30996,-0.9299 0.8752,-1.58631 0.56524,-0.66552 1.36751,-1.02107 0.81139,-0.36467 1.80511,-0.36467 0.9846,0 1.74129,0.30997 0.75669,0.30085 1.26723,0.84785 0.51053,0.54701 0.77492,1.30369 0.26438,0.75669 0.26438,1.65925 z m -2.26094,-0.31909 q 0.009,-0.547 -0.13675,-0.94814 -0.14587,-0.41025 -0.40114,-0.67463 -0.24615,-0.26439 -0.58347,-0.39202 -0.3282,-0.12764 -0.7111,-0.12764 -0.83874,0 -1.37663,0.56524 -0.53789,0.55612 -0.63817,1.57719 z m -10.56628,5.66148 v -6.03526 q 0,-1.5225 -1.13048,-1.5225 -0.56523,0 -1.08489,0.45584 -0.51053,0.45584 -1.08489,1.23987 v 5.86205 h -2.22448 v -12.88192 h 2.22448 v 3.17262 l -0.1094,1.67748 q 0.28262,-0.33732 0.57436,-0.60171 0.29173,-0.2735 0.62905,-0.45583 0.33732,-0.18234 0.72934,-0.27351 0.39202,-0.10028 0.86609,-0.10028 0.7111,0 1.23987,0.23703 0.52877,0.22792 0.88432,0.65641 0.35555,0.41937 0.52877,1.02107 0.18234,0.59259 0.18234,1.33104 v 6.2176 z m -8.16859,-0.0912 q -0.6017,0.13675 -1.21252,0.2188 -0.61082,0.082 -1.15782,0.082 -0.91167,0 -1.57719,-0.19145 -0.65641,-0.19145 -1.09401,-0.58347 -0.42849,-0.39202 -0.63817,-0.99372 -0.20057,-0.61082 -0.20057,-1.44956 v -4.5219 h -2.48886 v -1.73217 h 2.48886 v -2.37035 l 2.27918,-0.59259 v 2.96294 h 3.6011 v 1.73217 h -3.6011 v 4.3578 q 0,0.79315 0.36467,1.2034 0.36467,0.40114 1.22164,0.40114 0.547,0 1.06666,-0.0912 0.51965,-0.0912 0.94813,-0.20968 z m -12.11611,0.0912 -0.0547,-1.21252 q -0.29174,0.30997 -0.61082,0.57435 -0.31909,0.25527 -0.70199,0.44672 -0.3829,0.19145 -0.83874,0.29174 -0.44672,0.1094 -0.9846,0.1094 -0.71111,0 -1.249,-0.20969 -0.53788,-0.20968 -0.90255,-0.58347 -0.36467,-0.37378 -0.55612,-0.90255 -0.18233,-0.52877 -0.18233,-1.16694 0,-0.6564 0.2735,-1.21252 0.28262,-0.55612 0.84785,-0.95726 0.57436,-0.40114 1.42221,-0.62905 0.85697,-0.22792 2.00568,-0.22792 h 1.21252 v -0.55612 q 0,-0.35555 -0.10028,-0.63817 -0.10029,-0.29174 -0.3282,-0.4923 -0.21881,-0.20057 -0.57436,-0.30997 -0.35555,-0.1094 -0.8752,-0.1094 -0.82051,0 -1.62278,0.19145 -0.79315,0.18233 -1.54072,0.51965 v -1.77776 q 0.66552,-0.26438 1.53161,-0.4376 0.8752,-0.17322 1.81422,-0.17322 1.03019,0 1.76865,0.20057 0.73845,0.19145 1.21252,0.58347 0.48319,0.39202 0.7111,0.9846 0.22792,0.58347 0.22792,1.36751 v 6.327 z m -0.31909,-4.0934 h -1.35839 q -0.56524,0 -0.95725,0.1094 -0.39202,0.1094 -0.63818,0.30085 -0.24615,0.19145 -0.36466,0.44672 -0.1094,0.24615 -0.1094,0.52877 0,0.56524 0.36466,0.86609 0.36467,0.29173 0.99373,0.29173 0.46495,0 0.96637,-0.33732 0.50142,-0.33731 1.10312,-0.96637 z m -7.70363,-1.24899 q 0,0.22792 -0.0182,0.59258 -0.009,0.36467 -0.0365,0.68376 h -6.08997 q 0,0.61082 0.18234,1.07577 0.19145,0.46495 0.52877,0.78404 0.34643,0.30997 0.8205,0.47407 0.48319,0.1641 1.06666,0.1641 0.67464,0 1.44044,-0.10028 0.77492,-0.10941 1.60454,-0.34644 v 1.76864 q -0.35555,0.10029 -0.77492,0.18234 -0.41937,0.082 -0.85697,0.14587 -0.4376,0.0638 -0.88432,0.0912 -0.44672,0.0365 -0.86609,0.0365 -1.05754,0 -1.89628,-0.30085 -0.83874,-0.30085 -1.42221,-0.88432 -0.58347,-0.59259 -0.89343,-1.45868 -0.30997,-0.86609 -0.30997,-2.00568 0,-1.13047 0.30997,-2.05126 0.30996,-0.9299 0.8752,-1.58631 0.56524,-0.66552 1.36751,-1.02107 0.81139,-0.36467 1.80511,-0.36467 0.98461,0 1.74129,0.30997 0.75669,0.30085 1.26723,0.84785 0.51053,0.54701 0.77492,1.30369 0.26438,0.75669 0.26438,1.65925 z m -2.26094,-0.31909 q 0.009,-0.547 -0.13675,-0.94814 -0.14587,-0.41025 -0.40114,-0.67463 -0.24615,-0.26439 -0.58347,-0.39202 -0.3282,-0.12764 -0.7111,-0.12764 -0.83874,0 -1.37663,0.56524 -0.53789,0.55612 -0.63817,1.57719 z m -8.05918,5.66148 h -2.63474 l -1.176054,-3.67403 -0.428486,-1.49515 -0.410252,1.53161 -1.157823,3.63757 h -2.525332 l -0.66552,-11.91555 h 1.978328 l 0.282618,7.63981 0.07293,2.08773 0.537887,-1.85981 1.312807,-4.23927 h 1.413092 l 1.385745,4.49454 0.44672,1.58631 0.0365,-1.85981 0.30085,-7.8495 h 1.90539 z m -10.82155,-0.35555 q -0.656404,0.26439 -1.358392,0.39202 -0.701987,0.12764 -1.467791,0.12764 -1.103124,0 -1.978329,-0.30086 -0.875205,-0.30085 -1.486025,-0.89343 -0.61082,-0.59259 -0.939022,-1.4678 -0.319085,-0.8752 -0.319085,-2.02391 0,-1.11224 0.346435,-2.01479 0.355552,-0.90256 0.993723,-1.54073 0.63817,-0.63817 1.531608,-0.9846 0.902556,-0.34644 2.005679,-0.34644 0.902555,0 1.513375,0.10028 0.619937,0.0912 1.11224,0.23704 v 2.16066 q -0.565237,-0.28262 -1.230757,-0.4376 -0.656404,-0.15499 -1.248991,-0.15499 -0.619937,0 -1.112239,0.20969 -0.492303,0.20968 -0.829622,0.58347 -0.337319,0.37378 -0.519653,0.91167 -0.173218,0.52877 -0.173218,1.16694 0,0.66552 0.191451,1.19429 0.191452,0.52877 0.537887,0.90256 0.355552,0.36467 0.847855,0.56523 0.492303,0.19145 1.094006,0.19145 0.291735,0 0.61082,-0.0365 0.328202,-0.0456 0.647287,-0.11852 0.328202,-0.082 0.638171,-0.18233 0.319085,-0.10029 0.592587,-0.21881 z m -10.137793,0.26439 q -0.601703,0.13675 -1.212524,0.2188 -0.61082,0.082 -1.157823,0.082 -0.911672,0 -1.577192,-0.19145 -0.656404,-0.19145 -1.094007,-0.58347 -0.428486,-0.39202 -0.63817,-0.99372 -0.200568,-0.61082 -0.200568,-1.44956 v -4.5219 h -2.488864 v -1.73217 h 2.488864 v -2.37035 l 2.27918,-0.59259 v 2.96294 h 3.601104 v 1.73217 h -3.601104 v 4.3578 q 0,0.79315 0.364669,1.2034 0.364669,0.40114 1.22164,0.40114 0.547003,0 1.066656,-0.0912 0.519653,-0.0912 0.948139,-0.20968 z m -11.140631,-0.17322 q 0,1.03931 -0.309969,1.80511 -0.300852,0.77492 -0.875205,1.27634 -0.565237,0.51054 -1.367508,0.75669 -0.793154,0.25527 -1.77776,0.25527 -0.802271,0 -1.495142,-0.13675 -0.692871,-0.13675 -1.13959,-0.32821 v -2.04214 q 0.255268,0.13675 0.574353,0.26438 0.328202,0.13675 0.674637,0.23704 0.355553,0.1094 0.720221,0.1641 0.364669,0.0638 0.720221,0.0638 1.011956,0 1.513376,-0.58347 0.501419,-0.58347 0.501419,-1.71395 v -7.28426 h -4.403375 v -1.73217 h 6.664322 z m 0.182334,-11.53265 q 0,0.30085 -0.109401,0.56524 -0.1094,0.26438 -0.309968,0.46495 -0.191451,0.19145 -0.464953,0.30997 -0.264385,0.1094 -0.574353,0.1094 -0.309969,0 -0.574353,-0.1094 -0.264385,-0.11852 -0.464953,-0.30997 -0.191451,-0.20057 -0.300852,-0.46495 -0.109401,-0.26439 -0.109401,-0.56524 0,-0.30085 0.109401,-0.56524 0.109401,-0.26438 0.300852,-0.46495 0.200568,-0.20057 0.464953,-0.30997 0.264384,-0.11852 0.574353,-0.11852 0.309968,0 0.574353,0.11852 0.273502,0.1094 0.464953,0.30997 0.200568,0.20057 0.309968,0.46495 0.109401,0.26439 0.109401,0.56524 z M 57.172472,138.90022 c -0.07478,0.26167 -3.289549,15.21417 -7.102436,33.19457 -3.85027,17.98036 -7.139818,33.34404 -7.326724,34.09168 l -0.373812,1.42048 h -6.317431 -6.354811 v 4.29885 4.29884 h 5.42028 c 2.9905,0 5.420281,0.0746 5.420281,0.1869 0,0.74764 -4.710036,22.01755 -5.457662,24.67163 -2.990499,10.54152 -8.261255,14.5413 -18.428953,13.90583 -3.102643,-0.18691 -7.9995851,-0.97191 -10.2050804,-1.60741 -0.63548,-0.1869 -0.6728621,0.56073 -0.6728621,11.962 0,11.21438 0.037382,12.14891 0.6354813,12.33582 3.4390732,1.08406 6.6164792,1.42049 14.3170182,1.6074 6.803385,0.14952 9.083639,0.0748 11.961995,-0.4112 9.046261,-1.57001 14.877735,-4.48575 19.886823,-9.90604 2.72883,-2.91575 3.962408,-4.71002 6.093142,-8.85933 3.214787,-6.24268 4.896944,-12.33582 9.98079,-36.33459 l 1.607396,-7.55101 h 11.66295 c 6.429573,0 11.700332,0.11214 11.700332,0.29904 0,0.14954 -1.345736,6.61649 -2.990506,14.39179 -1.644779,7.7753 -2.990498,14.3544 -2.990498,14.65345 0,0.48595 4.149323,0.56072 31.923595,0.56072 18.80275,0 32.03571,-0.14953 32.14787,-0.33643 0.26165,-0.41119 5.08383,-22.69042 5.08383,-23.43804 0,-0.44858 -2.72884,-0.52334 -17.19537,-0.52334 -19.47563,0 -17.56919,0.37381 -16.67204,-3.36432 l 0.48596,-2.05597 20.59706,-0.11215 20.63445,-0.0748 v -4.29884 -4.29884 h -19.62513 c -12.85917,0 -19.62517,-0.11215 -19.62517,-0.37381 0,-0.22429 3.1774,-15.55061 7.10243,-34.09169 3.92504,-18.57849 7.10245,-33.94218 7.10245,-34.20385 -1e-5,-0.37382 -3.10266,-0.48595 -14.72822,-0.48595 h -14.72821 l -0.18691,1.00929 c -1.12143,5.53242 -14.167485,66.98719 -14.317006,67.47313 -0.18691,0.6355 -1.084053,0.67287 -11.775096,0.67287 -10.765796,0 -11.5508,-0.0375 -11.5508,-0.67287 0.03738,-0.33642 3.289547,-15.77488 7.251958,-34.27859 3.999792,-18.50371 7.177205,-33.75526 7.065052,-33.94217 -0.07471,-0.14953 -6.728617,-0.26166 -14.728207,-0.26166 -11.326517,0 -14.616067,0.11215 -14.728209,0.44857 z"
           inkscape:connector-curvature="0" />
      </g>
    </g>
  </g>
</svg>
